PathFileType	4	(X/Y/Z)	D:\TRACE\spotREDO_2-26-24\spot_Both_Motion_3_3-v60.trc
DataRate	CameraRate	NumFrames	NumMarkers	Units	OrigDataRate	OrigDataStartFrame	OrigNumFrames
100.00	100.00	      24	9	mm	100.00	6126	      7000
Frame#	Time	front left toe			Front right toe			aft left toe			aft right toe			Arm			FL body			FR body			AL Body			AR Body			
		X1	Y1	Z1	X2	Y2	Z2	X3	Y3	Z3	X4	Y4	Z4	X5	Y5	Z5	X6	Y6	Z6	X7	Y7	Z7	X8	Y8	Z8	X9	Y9	Z9	

6126	61.250	-134.51044	35.09432	-411.56720	276.57205	39.08380	-548.64069	-17.75047	10.50145	180.33089	373.89127	28.10769	57.42307	64.24560	709.33856	-744.99780	-26.80303	595.47888	-497.42230	127.78847	599.91412	-516.17847	73.35661	550.14264	379.74994	220.04991	544.02631	364.74814	
6127	61.260	-134.37277	34.61767	-411.61285	276.43323	38.83591	-548.85382	-17.66129	10.55170	180.17046	374.01996	28.20320	57.33588	64.01899	709.48663	-745.35168	-28.15531	595.47125	-498.16354	127.15189	599.95557	-516.70935	72.14169	550.52063	379.24393	218.75587	544.25482	364.10434	
6128	61.270	-134.42584	34.21722	-411.64532	276.46109	38.54637	-548.92719	-17.39100	10.50561	179.87256	374.02756	28.25951	57.11788	63.82539	709.32739	-745.77679	-29.08880	595.29077	-498.59818	125.81369	599.91302	-517.31097	71.39961	550.57062	378.43744	218.04582	544.71069	363.46573	
6129	61.280	-134.47610	33.89502	-411.96341	276.45227	38.40257	-549.04840	-17.30026	10.50849	179.83086	373.97211	28.17903	56.73775	62.91501	709.45197	-746.02374	-30.70291	595.48309	-499.83917	124.36815	599.82922	-518.12640	70.61376	550.75031	377.72183	216.88695	545.10223	362.66986	
6130	61.290	-134.51076	33.69702	-412.06442	276.57339	38.16085	-549.23694	-17.13389	10.46727	179.74934	374.19095	28.25171	56.41501	61.94223	709.60913	-746.33612	-31.34082	595.06396	-499.87939	123.42599	599.90472	-518.80896	70.44273	550.89343	376.98618	216.69850	545.37500	361.59723	
6131	61.300	-134.55623	33.36227	-412.20392	276.53284	37.70606	-549.60791	-16.94558	10.57268	179.63017	374.42514	28.36815	56.24233	61.73233	709.40167	-746.65619	-32.28685	594.80573	-500.51251	122.38742	599.95734	-519.73816	69.63911	551.21307	376.36832	216.00491	545.82196	361.47198	
6132	61.310	-134.59724	32.99504	-412.33655	276.55875	37.30278	-549.83411	-16.72653	10.78222	179.52550	374.64432	28.39825	56.10709	61.78683	708.98914	-746.91840	-33.33582	594.80902	-501.41037	121.71851	599.65369	-520.41675	69.28307	551.56799	375.63763	215.41499	546.14539	360.29749	
6133	61.320	-134.37772	32.46941	-412.36124	276.68417	37.13210	-549.98175	-16.65373	10.95074	179.42320	375.01031	28.51042	56.02062	61.81156	708.69086	-747.09174	-33.85550	594.34851	-501.92917	120.83976	599.45715	-521.29395	68.42979	551.99408	374.95654	215.49707	546.35645	359.22351	
6134	61.330	-134.11882	32.11599	-412.50415	276.79495	36.86335	-550.19312	-16.44380	11.12866	179.36279	375.38324	28.62899	55.96455	62.13652	708.49762	-747.24225	-34.83566	594.22546	-503.04181	120.04071	599.37085	-522.27716	68.37996	552.09668	374.12387	214.97018	546.70636	358.56354	
6135	61.340	-133.98401	31.88602	-412.60095	276.69623	36.66069	-550.36371	-16.23396	11.24011	179.32126	375.37247	28.54303	55.74509	62.41136	708.48694	-747.46259	-35.19379	594.11194	-503.59641	119.62460	599.36700	-522.89343	68.18439	552.39612	373.19955	214.78514	546.89026	357.76120	
6136	61.350	-133.88884	31.72882	-412.64996	276.96286	36.41954	-550.25708	-16.07253	11.35536	179.25407	375.61612	28.48313	55.45326	62.28640	708.72412	-747.59454	-35.65175	593.96356	-504.66876	119.27184	599.20013	-523.95123	68.35233	552.48132	372.29327	214.67903	547.17432	356.98068	
6137	61.360	-133.79163	31.56521	-412.74686	277.04059	36.03622	-550.33496	-16.03174	11.48796	179.15222	375.76404	28.53902	55.37316	62.74014	708.75055	-747.87927	-35.70993	593.90436	-505.52298	119.10612	599.09686	-524.74182	67.71338	552.80688	371.56943	214.34528	547.43195	356.01736	
6138	61.370	-133.40277	31.15455	-412.97412	277.18170	35.56242	-550.64795	-15.86915	11.50370	178.94612	375.87845	28.40952	55.24487	63.21482	708.67627	-748.15167	-35.60260	593.76111	-506.39981	119.31940	598.99042	-525.65930	67.43867	552.95111	370.64111	214.40996	547.57288	354.68161	
6139	61.380	-133.09595	30.71847	-413.23679	277.57639	35.12548	-550.77924	-15.73458	11.51667	178.82626	375.96558	28.37676	55.19623	63.42704	708.66724	-748.35382	-35.40627	593.62067	-507.42343	119.21763	598.71503	-526.68420	67.07810	553.04327	369.70135	214.08290	547.52692	354.24658	
6140	61.390	-132.97794	30.65501	-413.38168	278.29568	34.95716	-550.68280	-15.63025	11.57651	178.76204	376.09995	28.31149	54.97025	63.58878	708.68488	-748.48889	-35.21291	593.53381	-508.44992	119.66089	598.63531	-527.56409	66.98778	553.02948	368.67346	213.91519	547.58350	353.38269	
6141	61.400	-132.82729	30.61216	-413.61264	278.55347	34.66566	-550.82141	-15.28963	11.48437	178.65994	376.14996	28.31217	54.92209	63.71041	708.79828	-748.66779	-34.54974	593.34271	-509.31116	120.15406	598.52405	-528.47675	66.85264	553.25818	367.79684	213.37462	547.63666	352.45953	
6142	61.410	-132.70259	30.39169	-413.90558	278.68326	34.05764	-551.02838	-15.23699	11.66116	178.38254	376.07056	28.52238	54.66620	63.54678	709.19684	-749.11414	-34.29031	592.92377	-510.62839	120.64486	597.96014	-529.52618	66.59579	553.71851	366.64011	213.36877	548.14484	351.53058	
6143	61.420	-132.59624	29.85247	-414.00235	278.98804	33.15038	-551.26227	-15.11179	12.18338	178.01299	376.19766	28.73899	54.66417	61.98219	710.40149	-749.54407	-33.65818	591.71533	-511.78357	121.27647	596.70166	-530.72955	66.51541	554.56976	365.60001	213.24367	548.78503	350.65576	
6144	61.430	-132.47040	29.66788	-414.22900	279.18982	32.54122	-551.25720	-14.71300	12.53145	177.86546	376.69440	29.00125	54.65429	61.67615	712.12115	-749.71301	-33.01076	590.60297	-513.00568	121.94257	595.12988	-531.76428	66.88984	555.71466	364.61774	213.53978	549.64771	349.61154	
6145	61.440	-132.03743	29.08080	-414.51212	279.40549	31.94007	-551.49530	-14.52534	12.81198	177.52786	376.89566	29.08628	54.68335	60.88426	715.38135	-749.51489	-31.87598	589.29803	-514.12537	123.00233	593.60168	-532.93652	66.96748	556.52625	363.42587	213.81404	550.20880	348.72800	
6146	61.450	-131.72989	28.83889	-414.70251	279.78802	31.68333	-551.52075	-14.42049	12.89977	177.47278	377.17627	28.94901	54.44071	59.80199	720.04028	-748.82068	-31.29577	588.13190	-515.46564	123.97312	592.40881	-534.02136	67.53386	557.45715	362.29819	214.05739	550.93390	347.37173	
6147	61.460	-131.40630	28.81720	-414.76297	280.02957	31.31736	-551.64270	-14.25087	12.94756	177.44102	377.47168	28.67347	54.17307	58.86111	726.17535	-747.45386	-30.83013	587.55231	-516.64911	123.41285	591.23401	-535.29651	68.36467	557.73352	361.08173	214.87796	551.31842	346.44962	
6148	61.470	-131.24930	28.72806	-414.81470	280.26785	31.07252	-551.70526	-14.06407	13.03439	177.33864	377.51892	28.30998	53.77216	57.93902	733.39087	-745.34418	-29.74507	586.77625	-517.96686	123.84229	590.50085	-536.67395	69.02065	557.98761	360.00494	215.67627	551.29199	345.14944	
6149	61.480	-131.03171	28.54820	-414.88492	280.43466	30.61233	-551.86664	-13.71211	13.04219	177.13292	377.95050	28.30669	53.77712	56.58317	741.04358	-742.87653	-29.25039	586.38458	-518.75195	124.61864	590.06854	-537.70923	70.45567	557.75623	358.91611	216.47336	551.01367	343.92743	
